<svg xmlns="http://www.w3.org/2000/svg" width="512" height="512"><path fill="#FDCC1A" d="m146.14 68.733 2.47-.014c2.73-.013 5.46-.011 8.19-.01q2.937-.008 5.875-.02c5.318-.018 10.636-.022 15.954-.024q4.986-.001 9.97-.01 17.394-.028 34.788-.026c10.806.002 21.611-.02 32.417-.051q13.92-.038 27.84-.036c5.541 0 11.083-.005 16.624-.026q7.819-.029 15.638-.005 2.867.003 5.733-.015c2.613-.015 5.226-.006 7.84.01l2.277-.032c6.446.084 11.522 2.233 16.451 6.385l1.606 1.891 1.644 1.86c4.907 7.602 4.927 14.585 4.73 23.39l-.04 3.504A889 889 0 0 1 356 114l2.09-.027q9.817-.12 19.636-.18c3.364-.021 6.727-.05 10.091-.095 3.88-.049 7.76-.071 11.64-.089l3.606-.062c11.9-.003 21.26 3.166 29.937 11.453 8.009 8.599 10.608 18.008 10.508 29.544l.019 3.397c.016 3.735.003 7.47-.01 11.204q.009 4.029.022 8.059c.018 6.525.014 13.05.002 19.576q-.013 7.958-.006 15.916l.002 2.293.004 4.61c.011 14.396-.002 28.79-.023 43.185q-.025 18.51.003 37.02a18324 18324 0 0 1 .014 47.634l-.002 2.282q-.003 7.946.012 15.89.017 9.687-.013 19.374-.016 4.939-.001 9.877c.01 3.574-.003 7.148-.023 10.722l.027 3.13c-.107 9.886-3.68 18.112-10.535 25.287-8.232 6.811-15.056 9.309-25.633 9.336l-2.77.02q-2.888.015-5.774.015c-2.946.004-5.89.04-8.835.078q-2.81.009-5.62.012l-2.665.043c-6.08-.045-6.08-.045-9.288-2.408C371 439 371 439 371 437c-3.418.023-6.833.1-10.25.188l-2.934.017-2.832.088-2.602.048c-2.638.472-2.638.472-4.293 3.164C346 443 346 443 343.023 443.63l-3.433-.002-3.748.006-3.904-.072-3.917.033c-9.505-.075-9.505-.075-11.913-2.506C315 439 315 439 315 437h-22l-1 4c-2.483 2.483-3.93 2.245-7.32 2.277l-2.263-.01-2.399.014c-2.667.013-5.335.011-8.003.01q-2.86.008-5.72.02c-5.193.018-10.385.022-15.578.024-4.333.001-8.667.009-13 .016q-15.345.023-30.686.02c-10.548-.002-21.095.02-31.642.051q-13.581.038-27.162.036c-5.408 0-10.816.005-16.223.026q-7.638.029-15.274.005-2.798-.003-5.596.015c-18.065.11-18.065.11-25.134-4.504l-2.164-1.35C76.502 432.88 71.214 425.433 69 417c-.295-3.681-.283-7.352-.274-11.043l-.016-3.38c-.015-3.74-.016-7.48-.016-11.22q-.012-4.022-.026-8.043c-.022-7.285-.03-14.57-.035-21.856q-.006-6.828-.017-13.658c-.02-12.615-.036-25.231-.04-37.847v-2.445l-.001-4.907v-2.46l-.001-2.463c-.004-13.164-.03-26.328-.068-39.492q-.057-20.292-.058-40.586c0-7.59-.009-15.18-.038-22.77q-.038-9.698-.017-19.396.013-4.942-.016-9.883c-.02-3.583-.01-7.164.008-10.746l-.04-3.113c.124-10.738 3.956-19.967 11.413-27.72 9.155-8.054 18.238-10.31 30.18-10.097l2.939.027q3.562.036 7.123.098l-.063-2.136a960 960 0 0 1-.187-9.739l-.102-3.36c-.1-8.564.978-15.66 6.536-22.421l2.254-1.844 2.246-1.906c5.012-3.449 9.488-3.886 15.456-3.861"/><path fill="#0A074F" d="m146.14 68.733 2.47-.014c2.73-.013 5.46-.011 8.19-.01q2.937-.008 5.875-.02c5.318-.018 10.636-.022 15.954-.024q4.986-.001 9.97-.01 17.394-.028 34.788-.026c10.806.002 21.611-.02 32.417-.051q13.92-.038 27.84-.036c5.541 0 11.083-.005 16.624-.026q7.819-.029 15.638-.005 2.867.003 5.733-.015c2.613-.015 5.226-.006 7.84.01l2.277-.032c6.446.084 11.522 2.233 16.451 6.385l1.606 1.891 1.644 1.86c4.907 7.602 4.927 14.585 4.73 23.39l-.04 3.504A889 889 0 0 1 356 114l2.09-.027q9.817-.12 19.636-.18c3.364-.021 6.727-.05 10.091-.095 3.88-.049 7.76-.071 11.64-.089l3.606-.062c11.9-.003 21.26 3.166 29.937 11.453 8.009 8.599 10.608 18.008 10.508 29.544l.019 3.397c.016 3.735.003 7.47-.01 11.204q.009 4.029.022 8.059c.018 6.525.014 13.05.002 19.576q-.013 7.958-.006 15.916l.002 2.293.004 4.61c.011 14.396-.002 28.79-.023 43.185q-.025 18.51.003 37.02a18324 18324 0 0 1 .014 47.634l-.002 2.282q-.003 7.946.012 15.89.017 9.687-.013 19.374-.016 4.939-.001 9.877c.01 3.574-.003 7.148-.023 10.722l.027 3.13c-.107 9.886-3.68 18.112-10.535 25.287-8.232 6.811-15.056 9.309-25.633 9.336l-2.77.02q-2.888.015-5.774.015c-2.946.004-5.89.04-8.835.078q-2.81.009-5.62.012l-2.665.043c-6.058-.045-6.058-.045-9.288-2.345C371 439 371 439 371 436c1.174-3.522 2.036-4.772 5-7 2.86-.37 5.347-.511 8.203-.469l2.414-.021c3.397-.03 6.794-.013 10.191 0 2.486.002 4.972-.02 7.458-.041l2.289.034c6.13-.057 11.35-1.721 15.977-5.88 4.53-5.054 5.713-10.275 5.742-16.903l.03-3.759.002-4.085q.012-2.168.026-4.333c.022-3.914.03-7.827.035-11.74q.006-3.673.017-7.345.037-12.824.042-25.649c.003-7.955.033-15.91.075-23.864q.051-10.262.05-20.525c.002-4.081.01-8.162.039-12.243q.038-5.76.012-11.521-.003-2.106.02-4.212c.09-8.24-.302-14.84-5.622-21.444-4.897-3.997-8.74-5.122-14.931-5.131l-3.007-.012-3.281.001-3.47-.01q-3.734-.012-7.467-.017-5.914-.012-11.83-.041l-6.109-.029c-9.176-.042-18.352-.075-27.528-.087-6.858-.01-13.716-.04-20.574-.081q-3.915-.02-7.83-.015c-3.66.002-7.318-.02-10.977-.048l-3.244.02c-10.266-.127-19.295-3.31-26.752-10.55-4.895-6.238-8.25-13.278-11.562-20.437-4.016-8.585-4.016-8.585-8.118-17.13l-1.167-2.408c-2.307-4.052-5.946-6.277-10.153-8.025-2.824-.306-2.824-.306-5.97-.267l-3.704-.026-4.055.002-4.279-.02c-3.872-.018-7.744-.022-11.616-.024q-3.63-.001-7.263-.01-12.676-.028-25.353-.026c-7.869.002-15.737-.02-23.605-.051q-10.143-.038-20.286-.036c-4.036 0-8.071-.005-12.107-.026q-5.698-.029-11.396-.005-2.085.003-4.17-.015c-7.835-.064-13.534.19-20.196 4.504-2.078 1.924-2.078 1.924-3.437 4.063l-1.434 2.035c-2.5 4.213-2.275 8.293-2.27 13.03l-.008 2.54c-.01 2.818-.01 5.637-.012 8.456l-.015 6.05q-.019 8.233-.024 16.464l-.012 10.285q-.02 16.086-.027 32.174a18773 18773 0 0 1-.05 37.145q-.034 14.354-.034 28.707a5829 5829 0 0 1-.025 17.146q-.023 8.07-.01 16.136.002 2.958-.013 5.916a943 943 0 0 0 .004 8.09l-.025 2.353c.054 6.012 1.134 11.638 5.04 16.433l1.727 1.352 1.71 1.398c4.773 3.058 9.094 3.515 14.658 3.479l2.34.009c2.586.007 5.17 0 7.755-.006l5.564.011q5.988.011 11.976.008c6.311-.002 12.622.012 18.933.03q26.918.068 53.837.077 14.869.006 29.738.055 9.413.03 18.825.012c3.901-.003 7.803.011 11.705.03q2.715.008 5.431-.005c2.47-.011 4.94.002 7.41.021l2.174-.027c3.514.054 5.5.491 8.522 2.342C293 433 293 433 293.5 436.563c-.5 3.437-.5 3.437-1.55 5.128-3.02 2.027-6.138 1.725-9.653 1.697l-2.402.016c-2.664.014-5.328.007-7.993 0l-5.721.02c-5.188.019-10.377.018-15.565.012-4.331-.003-8.662.003-12.994.009q-15.333.02-30.667.001c-10.54-.011-21.08.003-31.62.03q-13.574.032-27.149.022-8.107-.006-16.213.017-7.63.022-15.262-.008-2.795-.005-5.59.01c-18.05.094-18.05.094-25.121-4.517l-2.164-1.35C76.502 432.88 71.214 425.433 69 417c-.295-3.681-.283-7.352-.274-11.043l-.016-3.38c-.015-3.74-.016-7.48-.016-11.22q-.012-4.022-.026-8.043c-.022-7.285-.03-14.57-.035-21.856q-.006-6.828-.017-13.658c-.02-12.615-.036-25.231-.04-37.847v-2.445l-.001-4.907v-2.46l-.001-2.463c-.004-13.164-.03-26.328-.068-39.492q-.057-20.292-.058-40.586c0-7.59-.009-15.18-.038-22.77q-.038-9.698-.017-19.396.013-4.942-.016-9.883c-.02-3.583-.01-7.164.008-10.746l-.04-3.113c.124-10.738 3.956-19.967 11.413-27.72 9.155-8.054 18.238-10.31 30.18-10.097l2.939.027q3.562.036 7.123.098l-.063-2.136a960 960 0 0 1-.187-9.739l-.102-3.36c-.1-8.564.978-15.66 6.536-22.421l2.254-1.844 2.246-1.906c5.012-3.449 9.488-3.886 15.456-3.861"/><path fill="#9C0190" d="M160.249 82.271q2.811-.005 5.624-.017c5.08-.015 10.16.008 15.24.039 5.32.026 10.638.02 15.957.02q13.394.006 26.787.07c10.325.047 20.648.063 30.973.06q14.901 0 29.801.039 6.342.015 12.682.017 7.464.006 14.927.052 2.74.013 5.48.01c2.492 0 4.983.016 7.475.038l2.193-.014c5.48.079 8.607 1.352 12.403 5.259 1.527 2.724 1.571 4.543 1.55 7.659l-.001 3.336-.047 3.583-.013 3.682a2117 2117 0 0 1-.093 11.646q-.022 3.948-.04 7.895A4148 4148 0 0 1 341 145l-2.362.002q-28.482.021-56.966.13c-9.183.035-18.366.06-27.549.064q-12.01.003-24.02.065c-4.237.02-8.474.033-12.71.025q-5.991-.009-11.983.042-2.19.012-4.38-.001c-9.592-.057-17.564.752-24.929 7.383-6.52 6.793-7.168 13.96-8.101 23.29h-33c-.158-11.24-.287-22.479-.363-33.72-.036-5.219-.086-10.438-.165-15.657-.076-5.038-.118-10.075-.136-15.114a445 445 0 0 0-.076-5.763 402 402 0 0 1-.055-8.079l-.076-2.4c.051-3.946.649-6.74 3.28-9.763 6.285-4.608 15.41-3.307 22.84-3.233"/><path fill="#0D0A4F" d="m184.188 263.688 2.556-.018c15.758.183 29.928 7.237 41.319 17.83 11 11.446 16.999 25.817 17.312 41.75-.596 17.114-6.583 34.197-19.375 46.133-14.887 12.038-30.951 17.123-50 15.617-16.322-2.75-29.893-10.88-40.25-23.812-3.553-5.063-6.241-10.55-8.75-16.188l-1.043-2.29c-4.924-13.083-2.902-30.15 2.297-42.75 7.843-16.882 20.279-26.979 37.25-33.995 6.163-2.074 12.242-2.236 18.684-2.277"/><path fill="#FA3968" d="M208.233 158.255q2.81-.006 5.619-.022c5.076-.019 10.152 0 15.229.027 5.315.023 10.63.014 15.947.01q13.388 0 26.774.058c10.317.042 20.633.049 30.949.037 9.929-.012 19.857 0 29.786.022q6.335.013 12.67.007 7.46-.005 14.92.044 2.737.013 5.473.004a603 603 0 0 1 7.474.037l2.185-.023c5.02.087 7.88 1.38 11.741 4.544 2.43 3.644 2.243 5.336 2.227 9.675v2.04c0 2.224-.016 4.448-.032 6.672l-.008 4.628c-.008 4.059-.028 8.118-.05 12.177-.02 4.142-.03 8.285-.04 12.427A9603 9603 0 0 1 389 235a8732 8732 0 0 1-35.963.207c-5.566.021-11.133.05-16.7.095q-8.062.063-16.125.078a882 882 0 0 0-6.143.043c-2.875.03-5.749.033-8.624.031l-2.548.044c-6.84-.048-12.255-1.856-17.153-6.754-2.182-3.433-3.935-6.955-5.642-10.642l-2.204-4.641a2377 2377 0 0 1-3.402-7.254 1235 1235 0 0 0-3.332-7.043l-.995-2.163c-3.514-7.352-7.772-12.894-15.294-16.376l-3.07-1.46c-4.45-1.848-8.123-2.302-12.95-2.37l-3.761-.06-4.047-.051-4.153-.063q-5.455-.082-10.91-.153-5.57-.077-11.14-.161-10.922-.162-21.844-.307a111 111 0 0 1-.438-5.125c-.08-.951-.162-1.903-.246-2.883.866-3.79 1.95-5.45 5.024-7.813 6.382-2.829 14.036-1.986 20.893-1.924"/><path fill="#F9832D" d="M355 128q11.474-.185 22.95-.275 3.899-.037 7.797-.102c3.749-.061 7.496-.09 11.245-.111l3.49-.078c8.302-.003 15.209 1.543 21.43 7.351 5.85 6.337 7.534 12.177 7.429 20.617v2.81c-.001 3.052-.024 6.103-.048 9.155q-.009 3.183-.013 6.364c-.011 5.573-.04 11.146-.074 16.72-.03 5.69-.044 11.381-.06 17.072A12039 12039 0 0 1 429 241a213 213 0 0 1-8.5-3.562c-3.754-1.432-7.282-1.764-11.281-2.028l-3.533-.242L403 235l-.004-2.628q-.026-12.313-.128-24.626c-.034-4.219-.06-8.438-.064-12.657-.004-4.079-.033-8.157-.077-12.235q-.02-2.325-.013-4.648c.02-8.958-.344-16.603-5.714-24.206-2.093-2.25-2.093-2.25-4.437-3.5l-2.184-1.344c-4.95-2.405-9.38-3.413-14.871-3.57l-3.633-.117-3.75-.094-3.82-.117c-3.102-.094-6.203-.177-9.305-.258z"/><path fill="#FAF3CA" d="M207.621 283.46c2.208 1.43 4.295 2.94 6.379 4.54l2.625 1.75c8 7.578 13.793 18.392 14.613 29.465.255 12.783-2.228 24.412-10.238 34.785-2.187 1.773-2.187 1.773-4 3l-1.137-2.195c-4.44-9.208-4.44-9.208-11.863-15.805 1.528-3.184 3.277-6.196 5.098-9.219 3.236-6.388 3.106-15.56 1.183-22.3-3.43-7.234-9.425-12.2-16.61-15.575-6.872-2.33-14.933-1.545-21.64 1.055-6.66 3.407-11.289 8.672-13.613 15.832-1.641 8.665-1.367 17.708 3.582 25.207l1.637 1.613C165 337 165 337 165 339l-2.687 2.125c-5.093 4.069-8.211 9.76-10.313 15.875-8.558-5.868-12.024-15.11-14-25-1.514-13.957 1.329-26.036 9.75-37.352 4.7-5.667 9.706-9.336 16.25-12.648l2.227-1.254c12.446-6.138 29.632-3.84 41.394 2.715"/><path fill="#F7822D" d="M121 128v48l-23 1c-5.76 1.646-5.76 1.646-11 4q-2 1.002-4 2-.149-7.684-.22-15.369-.03-2.61-.082-5.22a603 603 0 0 1-.089-7.536l-.062-2.327c-.003-6.62 2.029-11.724 6.348-16.755l1.918-1.606 1.894-1.644C102.586 125.895 107.692 128 121 128"/><path fill="#0E0B4D" d="M296.576 339.467c.958-.01 1.917-.018 2.904-.027 3.163-.022 6.326-.015 9.489-.006q3.3-.008 6.601-.02 6.915-.014 13.83.01c5.908.017 11.816-.007 17.724-.042 4.544-.022 9.087-.02 13.63-.012q3.268 0 6.536-.02c3.045-.018 6.089-.004 9.134.019l2.727-.036c4.458.068 6.283.227 9.912 3.046C391 345 391 345 391.563 347.563c-.783 3.392-1.736 4.368-4.563 6.437-3.216.606-6.398.546-9.662.518l-2.968.02c-3.238.018-6.475.007-9.714-.007l-6.747.012q-7.072.008-14.143-.022c-6.046-.022-12.092-.01-18.138.015-4.645.014-9.29.01-13.934 0q-3.344-.005-6.689.01c-3.114.01-6.228-.006-9.343-.028l-2.8.024c-6.222-.083-6.222-.083-9.43-2.387-1.981-2.982-2.09-4.65-1.432-8.155 4.326-4.812 8.529-4.577 14.576-4.533M296.576 293.467c.958-.01 1.917-.018 2.904-.027 3.163-.022 6.326-.015 9.489-.006q3.3-.008 6.601-.02 6.915-.014 13.83.01c5.908.017 11.816-.007 17.724-.042 4.544-.022 9.087-.02 13.63-.012q3.268 0 6.536-.02c3.045-.018 6.089-.004 9.134.019l2.727-.036c4.458.068 6.283.227 9.912 3.046C391 299 391 299 391.563 301.563c-.783 3.392-1.736 4.368-4.563 6.437-3.216.606-6.398.546-9.662.518l-2.968.02c-3.238.018-6.475.007-9.714-.007l-6.747.012q-7.072.008-14.143-.022c-6.046-.022-12.092-.01-18.138.015-4.645.014-9.29.01-13.934 0q-3.344-.005-6.689.01c-3.114.01-6.228-.006-9.343-.028l-2.8.024c-6.222-.083-6.222-.083-9.43-2.387-1.981-2.982-2.09-4.65-1.432-8.155 4.326-4.812 8.529-4.577 14.576-4.533"/><path fill="#F5812D" d="M192.355 346.945c5.647 3.37 9.765 7.633 11.645 14.055.03 2 .033 4 0 6-13.815 5.14-25.276 5.63-39 0-.663-6.367 1.033-10.025 5-15 6.368-5.902 13.919-8.44 22.355-5.055"/><path fill="#F7822D" d="M191.813 305.688c3.287 2.385 4.763 3.542 6.187 7.312.734 5.584.45 10.365-3 15-3.96 3.068-7.679 4.343-12.687 4-4.022-.686-6.47-1.984-9.313-5-2.87-4.692-2.764-9.668-2-15 1.605-3.241 3.939-5.195 6.813-7.375 5.027-1.437 9.391-1.35 14 1.063"/><path fill="#0A084E" d="m331.375 428.563 3.445-.061c8.332.005 8.332.005 12.403 2.373 2.119 2.534 2.858 3.805 2.777 7.125-1.603 2.62-1.603 2.62-4 5-2.977.631-2.977.631-6.41.629l-3.748.006-3.904-.072-3.917.033c-9.474-.074-9.474-.074-11.921-2.409-1.675-3.33-1-5.653-.1-9.187 3.533-4.947 9.904-3.471 15.375-3.437"/></svg>